<?xml version="1.0" encoding="UTF-8"?>
<svg width="71px" height="38px" viewBox="0 0 71 38" version="1.1" xmlns="http://www.w3.org/2000/svg" xmlns:xlink="http://www.w3.org/1999/xlink">
    <!-- Generator: Sketch 61.2 (89653) - https://sketch.com -->
    <title>Element/Logo/EELV</title>
    <desc>Created with Sketch.</desc>
    <defs>
        <polygon id="path-1" points="3.70773265 0.190791667 0.125019616 0.190791667 0.125019616 8.99131605 3.70773265 8.99131605"></polygon>
        <polygon id="path-3" points="0 38 69.8803353 38 69.8803353 0.190791667 0 0.190791667"></polygon>
        <polygon id="path-5" points="0 38 69.8803353 38 69.8803353 0.190791667 0 0.190791667"></polygon>
        <polygon id="path-7" points="0 38 69.8803353 38 69.8803353 0.190791667 0 0.190791667"></polygon>
        <polygon id="path-9" points="0 38 69.8803353 38 69.8803353 0.190791667 0 0.190791667"></polygon>
        <polygon id="path-11" points="0 38 69.8803353 38 69.8803353 0.190791667 0 0.190791667"></polygon>
        <polygon id="path-13" points="0 38 69.8803353 38 69.8803353 0.190791667 0 0.190791667"></polygon>
        <polygon id="path-15" points="0 38 69.8803353 38 69.8803353 0.190791667 0 0.190791667"></polygon>
        <polygon id="path-17" points="0 38 69.8803353 38 69.8803353 0.190791667 0 0.190791667"></polygon>
        <polygon id="path-19" points="0 38 69.8803353 38 69.8803353 0.190791667 0 0.190791667"></polygon>
        <polygon id="path-21" points="0 38 69.8803353 38 69.8803353 0.190791667 0 0.190791667"></polygon>
        <polygon id="path-23" points="0 38 69.8803353 38 69.8803353 0.190791667 0 0.190791667"></polygon>
        <polygon id="path-25" points="0 38 69.8803353 38 69.8803353 0.190791667 0 0.190791667"></polygon>
        <polygon id="path-27" points="0 38 69.8803353 38 69.8803353 0.190791667 0 0.190791667"></polygon>
        <polygon id="path-29" points="0 38 69.8803353 38 69.8803353 0.190791667 0 0.190791667"></polygon>
        <polygon id="path-31" points="0 38 69.8803353 38 69.8803353 0.190791667 0 0.190791667"></polygon>
        <polygon id="path-33" points="0 38 69.8803353 38 69.8803353 0.190791667 0 0.190791667"></polygon>
        <polygon id="path-35" points="0 38 69.8803353 38 69.8803353 0.190791667 0 0.190791667"></polygon>
        <polygon id="path-37" points="0 38 69.8803353 38 69.8803353 0.190791667 0 0.190791667"></polygon>
        <polygon id="path-39" points="0 38 69.8803353 38 69.8803353 0.190791667 0 0.190791667"></polygon>
        <polygon id="path-41" points="0 38 69.8803353 38 69.8803353 0.190791667 0 0.190791667"></polygon>
        <polygon id="path-43" points="0 38 69.8803353 38 69.8803353 0.190791667 0 0.190791667"></polygon>
        <polygon id="path-45" points="0 38 69.8803353 38 69.8803353 0.190791667 0 0.190791667"></polygon>
        <polygon id="path-47" points="0 38 69.8803353 38 69.8803353 0.190791667 0 0.190791667"></polygon>
    </defs>
    <g id="Element/Logo/EELV" stroke="none" stroke-width="1" fill="none" fill-rule="evenodd">
        <g id="logo-e-e-l-v">
            <polygon id="Fill-1" fill="#FFD400" fill-rule="nonzero" points="63.3379603 22.8461418 61 24.7138161 64.0502185 25.3690495 65.3002135 28 66.888997 25.55884 70 25.3175324 67.9307215 23.1536346 68.6034514 20.3727836 65.7367048 21.4773607 63.0413101 20"></polygon>
            <polygon id="Fill-2" fill="#FFD400" fill-rule="nonzero" points="57.129334 34.7726677 59.3481931 33.7489737 61.455146 35 61.1994128 32.5007413 63 30.8138116 60.6233719 30.2932824 59.6279582 28 58.4157037 30.1771214 56 30.4463675 57.627041 32.3129278"></polygon>
            <polygon id="Fill-3" fill="#FFD400" fill-rule="nonzero" points="52.8001694 34.2265444 51 33.9592025 51.8284288 35.5035309 51.0072563 37.049675 52.8050069 36.7774909 54.09663 38 54.3794244 36.2878013 56 35.4968725 54.3761994 34.7109881 54.0867531 33"></polygon>
            <g id="Group-51">
                <path d="M22.3834972,10.8426865 C22.8959832,11.3620198 23.8515419,11.1652906 24.3266816,10.7504573 C25.866095,9.40798854 26.1462905,6.99558228 26.1904805,6.97183228 L26.1893073,6.97084272 C26.1662346,7.01557187 23.7909274,7.30354063 22.4712905,8.86826978 C22.0634134,9.35237396 21.8712067,10.3225615 22.3834972,10.8424885 L22.3834972,10.8426865 L22.3834972,10.8426865 Z" id="Fill-4" fill="#FFD400" fill-rule="nonzero"></path>
                <g id="Group-8" transform="translate(16.424581, 0.000000)">
                    <g id="Fill-6-Clipped">
                        <mask id="mask-2" fill="white">
                            <use xlink:href="#path-1"></use>
                        </mask>
                        <g id="path-1"></g>
                        <path d="M1.92666201,8.99131605 C2.9072486,8.99743022 3.63344973,7.67514896 3.69386872,6.65449272 C3.89311452,3.35146146 1.87856145,0.268711458 1.89811452,0.191523958 L1.89596369,0.190732292 C1.91610335,0.268711458 -0.0785055866,3.32553437 0.142053073,6.63113854 C0.210293296,7.65298228 0.945097765,8.98476354 1.92587989,8.99089896 L1.92666201,8.99131605 Z" id="Fill-6" fill="#FFD400" fill-rule="nonzero" mask="url(#mask-2)"></path>
                    </g>
                </g>
                <path d="M16.2532961,9.38113127 C17.1806983,9.06030832 17.4231564,7.53674582 17.1386592,6.526975 C16.2200559,3.25976668 13.2865084,0.94335 13.2788827,0.862402082 L13.2769274,0.86200625 C13.322095,0.931277082 12.4641062,4.5581 13.7792458,7.68795418 C14.1861452,8.65576668 15.3251117,9.70096459 16.252514,9.3805375 L16.2532961,9.38113127 Z" id="Fill-9" fill="#FFD400" fill-rule="nonzero"></path>
                <path d="M14.1761732,10.9416448 C15.1790503,9.96453022 14.7545531,8.01821772 13.9188548,7.01715522 C11.216229,3.77270728 6.45603353,2.94838437 6.4075419,2.85813437 L6.40519554,2.85932187 C6.49357543,2.91097812 7.15368714,7.72609272 10.2855028,10.5521448 C11.2535754,11.425749 13.1721229,11.917374 14.1753911,10.941051 L14.1761732,10.9416448 Z" id="Fill-11" fill="#FFD400" fill-rule="nonzero"></path>
                <path d="M12.6743603,13.6162312 C13.0405894,12.2025125 11.4462318,10.6714292 10.0327402,10.2116687 C5.45908102,8.7183875 0.385645251,10.5012208 0.284164805,10.4454083 L0.282405028,10.4477833 C0.399332401,10.4469917 3.97089666,14.4421375 8.70215364,15.3297937 C10.1645279,15.6043042 12.306176,15.0297521 12.6737737,13.6162312 L12.6743603,13.6162312 Z" id="Fill-13" fill="#FFD400" fill-rule="nonzero"></path>
                <path d="M12.3573855,16.2666521 C12.1307654,14.9030063 10.0986145,14.2253396 8.65031842,14.3957458 C3.96168714,14.9455583 0.113055866,18.5151833 0.000625698323,18.5078604 L3.91061449e-05,18.5106313 C0.104256983,18.4635271 4.87735754,20.4690167 9.46900559,19.3355479 C10.8877765,18.9844438 12.5826369,17.6312875 12.3567989,16.2672458 L12.3573855,16.2666521 Z" id="Fill-15" fill="#FFD400" fill-rule="nonzero"></path>
                <path d="M12.9138073,19.5295656 C12.0456508,18.3100031 9.7984162,18.592826 8.50967318,19.4294198 C4.33724302,22.1347427 2.40735475,27.3832948 2.29687989,27.428024 L2.29766201,27.4311906 C2.37372346,27.3365865 7.85132123,27.0735552 11.6520475,23.8469198 C12.8267961,22.849024 13.7811816,20.749326 12.9136117,19.5299615 L12.9138073,19.5295656 Z" id="Fill-17" fill="#FFD400" fill-rule="nonzero"></path>
                <path d="M14.7066285,21.7998281 C13.5971871,21.1330469 11.8260698,22.2960052 11.0265447,23.5288281 C8.43615364,27.5186302 8.51651677,32.7208699 8.43889107,32.8043905 L8.44065083,32.8061718 C8.4735,32.6957345 12.9265168,30.2199948 15.0429413,25.9453906 C15.6967961,24.624099 15.8158743,22.467599 14.706433,21.8006198 L14.7066285,21.7998281 Z" id="Fill-19" fill="#FFD400" fill-rule="nonzero"></path>
                <path d="M17.453229,22.9111698 C16.3211062,22.7930135 15.3366089,24.2393885 15.1530056,25.4118469 C14.5583967,29.2074927 16.5436201,32.9985864 16.5127263,33.0858677 L16.514486,33.0868573 C16.4998212,32.9944301 19.1414413,29.686649 19.2517207,25.8409302 C19.285743,24.6522427 18.5849609,23.0303156 17.453229,22.9115656 L17.453229,22.9111698 Z" id="Fill-21" fill="#FFD400" fill-rule="nonzero"></path>
                <path d="M19.6569581,22.3665031 C18.8591927,22.5280031 18.4427123,23.5405448 18.5283548,24.2378052 C18.8017067,26.4938573 20.8463715,28.228201 20.8410922,28.2834198 L20.842852,28.2836177 C20.8160643,28.2345344 22.0348073,25.8405344 21.4194721,23.6531594 C21.2288296,22.977076 20.4557011,22.2050031 19.6571536,22.3665031 L19.6569581,22.3665031 Z" id="Fill-23" fill="#FFD400" fill-rule="nonzero"></path>
                <path d="M20.5196592,9.42326772 C21.4130391,9.82563228 22.5371452,9.07196563 22.9481508,8.28762187 C24.2806927,5.74914272 23.5146033,2.48747604 23.5589888,2.43403854 L23.5580112,2.43324688 C23.5492123,2.50271563 20.6623967,4.11751772 19.7127039,6.82778854 C19.4188212,7.66596563 19.6260838,9.01971563 20.5194637,9.42267396 L20.5196592,9.42326772 Z" id="Fill-25" fill="#FFD400" fill-rule="nonzero"></path>
                <g id="Fill-27-Clipped">
                    <mask id="mask-4" fill="white">
                        <use xlink:href="#path-3"></use>
                    </mask>
                    <g id="path-3"></g>
                    <polygon id="Fill-27" fill="#79B41D" fill-rule="nonzero" mask="url(#mask-4)" points="23.8146648 28.6755521 25.2701955 28.6755521 25.2701955 21.56025 23.8146648 21.56025"></polygon>
                </g>
                <g id="Fill-29-Clipped">
                    <mask id="mask-6" fill="white">
                        <use xlink:href="#path-5"></use>
                    </mask>
                    <g id="path-3"></g>
                    <path d="M28.0260056,24.6875906 C27.7473743,24.6875906 27.5295531,24.767549 27.3731285,24.9274656 C27.2165084,25.0875802 27.1134637,25.318549 27.0632123,25.6193823 L28.8806704,25.6193823 C28.8806704,25.5020177 28.8656145,25.3882156 28.8358938,25.2775802 C28.8059776,25.1659552 28.757486,25.066799 28.690419,24.9803094 C28.6231564,24.8930281 28.5347765,24.8223719 28.4252793,24.7683406 C28.3153911,24.7145073 28.1822346,24.6875906 28.0260056,24.6875906 M27.9976536,23.6704969 C28.3200838,23.6704969 28.6153352,23.7209656 28.8830168,23.8226948 C29.1506983,23.924226 29.380838,24.0718719 29.5730447,24.2648406 C29.7654469,24.4580073 29.9158101,24.6947156 30.0239386,24.9753615 C30.132067,25.2558094 30.1860335,25.5736635 30.1860335,25.928726 C30.1860335,26.0395594 30.1813408,26.1302052 30.1719553,26.199476 C30.1625698,26.2691427 30.1453631,26.3245594 30.1203352,26.3661219 C30.0953073,26.4070906 30.061676,26.4353927 30.0194413,26.451226 C29.9774022,26.4672573 29.9230447,26.4753719 29.8573464,26.4753719 L27.0493296,26.4753719 C27.0960614,26.8874344 27.2194413,27.1858927 27.4200559,27.3709448 C27.6206704,27.5567885 27.878771,27.6490177 28.1951397,27.6490177 C28.3642737,27.6490177 28.5095531,27.6284344 28.6317598,27.5872677 C28.7535754,27.5464969 28.8626816,27.5005802 28.9581006,27.4495177 C29.0535195,27.398851 29.1411173,27.3527365 29.2210894,27.3117677 C29.3010614,27.270601 29.3847486,27.2496219 29.4721508,27.2496219 C29.5881006,27.2496219 29.6756983,27.2925698 29.7349441,27.3782677 L30.1578771,27.9059135 C30.007514,28.0802781 29.845419,28.2221844 29.6715922,28.3310385 C29.4977654,28.4402885 29.3192458,28.5263823 29.1366201,28.5879344 C28.9532123,28.6494865 28.77,28.6920385 28.5869832,28.7161844 C28.4035754,28.7401323 28.2289665,28.7524031 28.063352,28.7524031 C27.7221508,28.7524031 27.4022626,28.695799 27.1032961,28.5837781 C26.8043296,28.4709656 26.542905,28.303726 26.3192179,28.0818615 C26.0955307,27.859799 25.9183799,27.5848927 25.7885475,27.2549656 C25.658324,26.9254344 25.5937989,26.5420698 25.5937989,26.104674 C25.5937989,25.7751427 25.6491341,25.4630281 25.7603911,25.1681323 C25.871648,24.8730385 26.0312011,24.615351 26.2392458,24.3934865 C26.4476816,24.171424 26.6997207,23.9958719 26.9955587,23.8656427 C27.2912011,23.7358094 27.6249721,23.6704969 27.9976536,23.6704969" id="Fill-29" fill="#79B41D" fill-rule="nonzero" mask="url(#mask-6)"></path>
                </g>
                <g id="Fill-30-Clipped">
                    <mask id="mask-8" fill="white">
                        <use xlink:href="#path-7"></use>
                    </mask>
                    <g id="path-3"></g>
                    <path d="M33.779458,24.8254 C33.7421118,24.8853688 33.7020278,24.9283167 33.6599888,24.95365 C33.6177543,24.9791813 33.5635923,24.99165 33.4984805,24.99165 C33.429458,24.99165 33.3610225,24.9768063 33.2921954,24.946525 C33.2235642,24.9164417 33.1490671,24.8835875 33.069877,24.8487542 C32.9901005,24.8143167 32.9001564,24.7818583 32.8002401,24.751775 C32.7003241,24.7216917 32.5863297,24.70665 32.4584524,24.70665 C32.2742626,24.70665 32.1326984,24.7420771 32.0341508,24.8133271 C31.9356035,24.8845771 31.8865251,24.9835354 31.8865251,25.1102021 C31.8865251,25.2026292 31.9183965,25.2784313 31.9827262,25.3387958 C32.0466647,25.3991604 32.1317206,25.4520042 32.2380893,25.4977229 C32.344458,25.5438375 32.4645139,25.5875771 32.5992348,25.6289417 C32.7335642,25.6701083 32.8710225,25.716025 33.0114134,25.7666917 C33.1518046,25.8171604 33.289458,25.8767333 33.4239831,25.9446188 C33.5583128,26.0127021 33.6781733,26.0970146 33.784542,26.1965667 C33.890715,26.2965146 33.9759666,26.4176396 34.0399051,26.5601396 C34.104039,26.7028375 34.1361062,26.8744313 34.1361062,27.0735354 C34.1361062,27.3177646 34.0925027,27.5424 34.0045139,27.7486292 C33.9169163,27.9548583 33.7861062,28.1319938 33.6124749,28.2808271 C33.4388436,28.4296604 33.2239554,28.5454417 32.9689831,28.627775 C32.71362,28.7103063 32.4205195,28.7516708 32.0888995,28.7516708 C31.9226984,28.7516708 31.7568882,28.7354417 31.5912738,28.7035771 C31.4250727,28.6721083 31.2649329,28.6295563 31.109877,28.575525 C30.9548212,28.5210979 30.8114972,28.4573688 30.679905,28.3829521 C30.5487039,28.3085354 30.4358827,28.2285771 30.3420279,28.1426813 L30.679905,27.6007854 C30.7205754,27.53765 30.7694581,27.4873792 30.8259665,27.4513583 C30.8824749,27.4147438 30.9556033,27.3963375 31.0461339,27.3963375 C31.1307989,27.3963375 31.2068604,27.4155354 31.274123,27.4533375 C31.341581,27.4917333 31.4143185,27.5329 31.4925308,27.5770354 C31.5707431,27.6217646 31.6626425,27.6631292 31.7672513,27.7007333 C31.8718604,27.7387333 32.0046257,27.7577333 32.1641789,27.7577333 C32.2764134,27.7577333 32.3722235,27.7460563 32.4504358,27.7221083 C32.5288436,27.6983583 32.5912179,27.6660979 32.6383409,27.6249313 C32.6854636,27.5839625 32.7194861,27.5380458 32.7413856,27.4869833 C32.763285,27.4363167 32.7744302,27.3840667 32.7744302,27.3300354 C32.7744302,27.2318688 32.7413856,27.1511188 32.6756872,27.0877854 C32.6099888,27.0242542 32.5237599,26.9694313 32.4173912,26.9237125 C32.3108267,26.8775979 32.1895979,26.8350458 32.0535083,26.7950667 C31.9172235,26.7556813 31.7789831,26.7105563 31.6378102,26.6600875 C31.4970278,26.609025 31.3583965,26.5480667 31.2223072,26.4768167 C31.0864134,26.4055667 30.9647933,26.3151188 30.8586201,26.2058688 C30.7518603,26.0966188 30.6660224,25.9626292 30.600324,25.8042958 C30.5346257,25.6459625 30.501581,25.4541813 30.501581,25.22915 C30.501581,25.0195563 30.5414693,24.8208479 30.6214413,24.6322333 C30.7014134,24.4438167 30.8210782,24.2779625 30.9806313,24.1356604 C31.1401842,23.9927646 31.3404077,23.88015 31.5814973,23.7960354 C31.8225866,23.7121188 32.104542,23.6695667 32.4267765,23.6695667 C32.6021677,23.6695667 32.7718882,23.6857958 32.9363297,23.7176604 C33.1009666,23.7491292 33.2548492,23.7932646 33.3989554,23.8502646 C33.5428661,23.9076604 33.674458,23.9749521 33.7931452,24.0527333 C33.9122235,24.1301188 34.0172235,24.2148271 34.1079497,24.3070563 L33.779458,24.8254 Z" id="Fill-30" fill="#79B41D" fill-rule="nonzero" mask="url(#mask-8)"></path>
                </g>
                <g id="Fill-31-Clipped">
                    <mask id="mask-10" fill="white">
                        <use xlink:href="#path-9"></use>
                    </mask>
                    <g id="path-3"></g>
                    <path d="M39.6904497,28.6754927 L38.0904216,28.6754927 L35.8095559,22.7197844 L37.2742765,22.7197844 C37.3986339,22.7197844 37.5034385,22.7496698 37.589081,22.808649 C37.6739415,22.867826 37.7312318,22.941649 37.7623211,23.0299198 L38.5792487,25.7008052 C38.6437738,25.9187115 38.7049749,26.131274 38.7636339,26.337899 C38.8217067,26.5447219 38.8723492,26.7513469 38.9138016,26.9583677 C38.9552543,26.7517427 39.0062877,26.5451177 39.0669021,26.337899 C39.1271257,26.131274 39.192042,25.9187115 39.2595,25.7008052 L40.1104497,23.0299198 C40.1411481,22.941649 40.1972652,22.8682219 40.2809524,22.808649 C40.3638575,22.749274 40.4620139,22.7197844 40.5760083,22.7197844 L41.9715112,22.7197844 L39.6904497,28.6754927 Z" id="Fill-31" fill="#79B41D" fill-rule="nonzero" mask="url(#mask-10)"></path>
                </g>
                <g id="Fill-32-Clipped">
                    <mask id="mask-12" fill="white">
                        <use xlink:href="#path-11"></use>
                    </mask>
                    <g id="path-3"></g>
                    <path d="M43.7965949,24.6875906 C43.5175727,24.6875906 43.3005334,24.767549 43.1437179,24.9274656 C42.9870979,25.0875802 42.883662,25.318549 42.8341928,25.6193823 L44.6514554,25.6193823 C44.6514554,25.5020177 44.6367904,25.3882156 44.6070698,25.2775802 C44.5765671,25.1659552 44.5288575,25.066799 44.4606174,24.9803094 C44.3937457,24.8930281 44.3053661,24.8223719 44.1960642,24.7683406 C44.0865671,24.7149031 43.9530195,24.6875906 43.7965949,24.6875906 M43.7686339,23.6704969 C44.0908687,23.6704969 44.3863158,23.7209656 44.6538016,23.8226948 C44.9212877,23.924226 45.1512318,24.0718719 45.3440251,24.2648406 C45.5364273,24.4580073 45.6867904,24.6947156 45.7947235,24.9753615 C45.9026564,25.2558094 45.9568185,25.5736635 45.9568185,25.928726 C45.9568185,26.0395594 45.9523211,26.1302052 45.9433267,26.199476 C45.9337457,26.2691427 45.916539,26.3245594 45.8913158,26.3661219 C45.8660923,26.4072885 45.832461,26.4353927 45.7904216,26.451226 C45.7483826,26.4672573 45.6942206,26.4753719 45.6283267,26.4753719 L42.8201144,26.4753719 C42.8676286,26.8874344 42.9906174,27.1858927 43.1914273,27.3709448 C43.3918462,27.5567885 43.6501425,27.6490177 43.9665112,27.6490177 C44.1352543,27.6490177 44.2813158,27.6284344 44.4031313,27.5872677 C44.5249471,27.5464969 44.6340529,27.5005802 44.7294722,27.4495177 C44.8246954,27.398851 44.91288,27.3527365 44.9926564,27.3117677 C45.0724329,27.270601 45.1557292,27.2496219 45.2439134,27.2496219 C45.3594722,27.2496219 45.4468743,27.2925698 45.5065112,27.3782677 L45.9294441,27.9059135 C45.7798631,28.0802781 45.6171815,28.2221844 45.4431591,28.3310385 C45.2695278,28.4402885 45.0910083,28.5263823 44.9079917,28.5879344 C44.7247794,28.6494865 44.5417626,28.6920385 44.3589415,28.7161844 C44.1755334,28.7401323 44.0009246,28.7524031 43.834919,28.7524031 C43.4937179,28.7524031 43.1736339,28.695799 42.8742765,28.5837781 C42.5757011,28.4709656 42.3142765,28.303726 42.0903938,28.0818615 C41.8665112,27.859799 41.6897513,27.5848927 41.5595278,27.2549656 C41.4296954,26.9254344 41.3647794,26.5420698 41.3647794,26.104674 C41.3647794,25.7751427 41.4205056,25.4630281 41.5311759,25.1681323 C41.6424329,24.8730385 41.8021815,24.615351 42.0106174,24.3934865 C42.218662,24.171424 42.4707011,23.9958719 42.7661481,23.8656427 C43.0613995,23.7354135 43.3961481,23.6704969 43.7686339,23.6704969" id="Fill-32" fill="#79B41D" fill-rule="nonzero" mask="url(#mask-12)"></path>
                </g>
                <g id="Fill-33-Clipped">
                    <mask id="mask-14" fill="white">
                        <use xlink:href="#path-13"></use>
                    </mask>
                    <g id="path-3"></g>
                    <path d="M46.3763102,28.6754927 L46.3763102,23.7461802 L47.2399692,23.7461802 C47.3123158,23.7461802 47.3723436,23.7525135 47.4212262,23.7651802 C47.4699134,23.7780448 47.5105837,23.7976385 47.543042,23.8243573 C47.5760866,23.8516698 47.600919,23.886899 47.6181257,23.9314302 C47.6353323,23.9757635 47.6505837,24.0297948 47.6627067,24.0931281 L47.7428743,24.554076 C47.9213938,24.2752115 48.1214216,24.0547323 48.3439358,23.8932323 C48.5662543,23.7315344 48.8085169,23.6507844 49.0720923,23.6507844 C49.2938241,23.6507844 49.4723436,23.7046177 49.6070642,23.8124823 L49.4193548,24.8958781 C49.4068409,24.962576 49.3816174,25.0094823 49.34388,25.036201 C49.306338,25.0631177 49.2562821,25.076576 49.1939077,25.076576 C49.1405278,25.076576 49.0777626,25.069451 49.0056118,25.0550031 C48.9338519,25.0413469 48.8431257,25.033826 48.7340195,25.033826 C48.3519524,25.033826 48.0506396,25.2398573 47.8318409,25.651326 L47.8318409,28.6745031 L46.3763102,28.6745031 L46.3763102,28.6754927 Z" id="Fill-33" fill="#79B41D" fill-rule="nonzero" mask="url(#mask-14)"></path>
                </g>
                <g id="Fill-34-Clipped">
                    <mask id="mask-16" fill="white">
                        <use xlink:href="#path-15"></use>
                    </mask>
                    <g id="path-3"></g>
                    <path d="M52.0619722,28.751651 C51.8300727,28.751651 51.6261339,28.7176094 51.4489831,28.6489323 C51.2718323,28.5810469 51.1230334,28.4844635 51.0029775,28.3591823 C50.8823353,28.2344948 50.7908267,28.0826927 50.7282569,27.9055573 C50.6658826,27.7284219 50.6344021,27.5299115 50.6344021,27.3114115 L50.6344021,24.7636302 L50.2216369,24.7636302 C50.1455754,24.7636302 50.0820278,24.7388906 50.0288436,24.6902031 C49.9754636,24.640724 49.9488714,24.5684844 49.9488714,24.4736823 L49.9488714,23.8985365 L50.7239554,23.7465365 L51.0104077,22.5443906 C51.0477543,22.391599 51.1545139,22.3161927 51.3293185,22.3161927 L52.0899329,22.3161927 L52.0899329,23.7564323 L53.2734805,23.7564323 L53.2734805,24.7636302 L52.0899329,24.7636302 L52.0899329,27.2118594 C52.0899329,27.3258594 52.1173072,27.4200677 52.1722513,27.4944844 C52.2275866,27.568901 52.3063856,27.6061094 52.4098211,27.6061094 C52.4632011,27.6061094 52.5075866,27.6009635 52.5437599,27.5894844 C52.5797374,27.578401 52.6108267,27.5657344 52.637419,27.5518802 C52.6644021,27.5376302 52.6892348,27.5243698 52.7134805,27.5136823 C52.7365529,27.502599 52.7635364,27.4966615 52.7954077,27.4966615 C52.8395979,27.4966615 52.8744021,27.507349 52.9013856,27.5281302 C52.9277821,27.5487135 52.954961,27.5813698 52.9833128,27.6253073 L53.4248211,28.324349 C53.2369163,28.466849 53.0261339,28.5739219 52.7909107,28.6453698 C52.5549051,28.7158281 52.3122513,28.751651 52.0619722,28.751651" id="Fill-34" fill="#79B41D" fill-rule="nonzero" mask="url(#mask-16)"></path>
                </g>
                <g id="Fill-35-Clipped">
                    <mask id="mask-18" fill="white">
                        <use xlink:href="#path-17"></use>
                    </mask>
                    <g id="path-3"></g>
                    <path d="M57.2343661,24.8254 C57.1966286,24.8853688 57.1569358,24.9283167 57.1147011,24.95365 C57.072662,24.9791813 57.0186954,24.99165 56.9529973,24.99165 C56.8843661,24.99165 56.8149524,24.9768063 56.7471035,24.946525 C56.678081,24.9164417 56.6035837,24.8835875 56.5238072,24.8487542 C56.4440308,24.8143167 56.3546733,24.7818583 56.2545615,24.751775 C56.1544497,24.7216917 56.0406508,24.70665 55.9121872,24.70665 C55.7283882,24.70665 55.5866286,24.7420771 55.4882765,24.8133271 C55.3895334,24.8845771 55.3406508,24.9835354 55.3406508,25.1102021 C55.3406508,25.2026292 55.3723267,25.2784313 55.436461,25.3387958 C55.500204,25.3991604 55.5850642,25.4520042 55.6916286,25.4977229 C55.7979973,25.5438375 55.9184441,25.5875771 56.0521872,25.6289417 C56.1869077,25.6701083 56.3243661,25.716025 56.4647569,25.7666917 C56.6053436,25.8171604 56.7428016,25.8767333 56.8773267,25.9446188 C57.0110698,26.0127021 57.1322989,26.0970146 57.2378856,26.1965667 C57.3440585,26.2965146 57.4297011,26.4176396 57.4934441,26.5601396 C57.5577738,26.7028375 57.5896452,26.8744313 57.5896452,27.0735354 C57.5896452,27.3177646 57.5456508,27.5424 57.4584441,27.7486292 C57.3702599,27.9548583 57.2396452,28.1319938 57.0664051,28.2808271 C56.8923826,28.4296604 56.678081,28.5454417 56.4227179,28.627775 C56.1677457,28.7103063 55.8740585,28.7516708 55.5422431,28.7516708 C55.3762374,28.7516708 55.2102318,28.7354417 55.0448128,28.7035771 C54.8784163,28.6721083 54.718081,28.6295563 54.5634163,28.575525 C54.4083604,28.5210979 54.2652318,28.4573688 54.1332487,28.3829521 C54.0022431,28.3085354 53.8894216,28.2285771 53.7953714,28.1426813 L54.1332487,27.6007854 C54.1735278,27.53765 54.2228016,27.4873792 54.2795056,27.4513583 C54.3362096,27.4147438 54.409338,27.3963375 54.5000642,27.3963375 C54.584338,27.3963375 54.6603995,27.4155354 54.727662,27.4533375 C54.7947292,27.4917333 54.8678575,27.5329 54.9460698,27.5770354 C55.0240866,27.6217646 55.1161815,27.6631292 55.2203995,27.7007333 C55.3253995,27.7387333 55.4581647,27.7577333 55.6177179,27.7577333 C55.7299524,27.7577333 55.8257626,27.7460563 55.9041703,27.7221083 C55.9819917,27.6983583 56.0441703,27.6660979 56.0916842,27.6249313 C56.1390027,27.5839625 56.1730251,27.5380458 56.1953158,27.4869833 C56.2168241,27.4363167 56.2277738,27.3840667 56.2277738,27.3300354 C56.2277738,27.2318688 56.1953158,27.1511188 56.1290308,27.0877854 C56.0631369,27.0242542 55.9772989,26.9694313 55.870539,26.9237125 C55.7639749,26.8775979 55.6425503,26.8350458 55.5068519,26.7950667 C55.3703714,26.7556813 55.2327179,26.7105563 55.090958,26.6600875 C54.9501759,26.609025 54.8115446,26.5480667 54.6750642,26.4768167 C54.5389749,26.4055667 54.4181369,26.3151188 54.3117682,26.2058688 C54.2050083,26.0966188 54.1187794,25.9626292 54.0528856,25.8042958 C53.9877738,25.6459625 53.9547292,25.4541813 53.9547292,25.22915 C53.9547292,25.0195563 53.9946174,24.8208479 54.0743938,24.6322333 C54.1541703,24.4438167 54.2742262,24.2779625 54.4335837,24.1356604 C54.5931369,23.9927646 54.794338,23.88015 55.0352318,23.7960354 C55.2757348,23.7121188 55.5582765,23.6695667 55.8803158,23.6695667 C56.05512,23.6695667 56.2252318,23.6857958 56.3900642,23.7176604 C56.5543102,23.7491292 56.7079973,23.7932646 56.8521035,23.8502646 C56.995623,23.9076604 57.1276062,23.9749521 57.2464888,24.0527333 C57.3657626,24.1301188 57.4703714,24.2148271 57.5610979,24.3070563 L57.2343661,24.8254 Z" id="Fill-35" fill="#79B41D" fill-rule="nonzero" mask="url(#mask-18)"></path>
                </g>
                <g id="Fill-36-Clipped">
                    <mask id="mask-20" fill="white">
                        <use xlink:href="#path-19"></use>
                    </mask>
                    <g id="path-3"></g>
                    <path d="M30.8665587,6.41972396 C30.5300503,6.41972396 30.2670614,6.51650522 30.0781788,6.70967187 C29.888514,6.90264063 29.7637654,7.18190104 29.7033464,7.54507813 L31.8991564,7.54507813 C31.8991564,7.40376563 31.8809722,7.26561978 31.8451898,7.13202604 C31.8092123,6.99803646 31.7503575,6.87829687 31.6690169,6.77300522 C31.5876759,6.66791146 31.4807206,6.58221354 31.3483462,6.51749478 C31.2165585,6.45218228 31.0556369,6.41972396 30.8665587,6.41972396 M30.8325363,5.19066146 C31.2222292,5.19066146 31.5786815,5.25221354 31.9020893,5.37432813 C32.2254973,5.49683854 32.503542,5.67456772 32.736419,5.90830728 C32.9691005,6.14204687 33.1505529,6.42823437 33.2807765,6.76686978 C33.4115866,7.10570313 33.4766984,7.48946354 33.4766984,7.91815104 C33.4766984,8.05273437 33.4706369,8.16158854 33.4596872,8.24590104 C33.4483462,8.32981772 33.4274246,8.39730728 33.3971174,8.44698437 C33.3668102,8.49685937 33.3261396,8.53129687 33.2753016,8.55069272 C33.2240727,8.56949478 33.158961,8.57899478 33.0795754,8.57899478 L29.6863352,8.57899478 C29.7432346,9.07675522 29.8924246,9.43755728 30.1346871,9.66179687 C30.3765587,9.88623437 30.6886257,9.99766146 31.0706928,9.99766146 C31.2754134,9.99766146 31.451,9.97292187 31.5982348,9.92304687 C31.7460559,9.87336978 31.8772569,9.81815104 31.9928158,9.75659896 C32.1079831,9.69544272 32.2141564,9.63982813 32.3107487,9.58995313 C32.4069497,9.54027604 32.508039,9.51553646 32.6142123,9.51553646 C32.7540169,9.51553646 32.8599944,9.56679687 32.9319497,9.67050522 L33.4424805,10.3081927 C33.2610278,10.518974 33.0653016,10.689974 32.8553016,10.8223802 C32.6454973,10.9541927 32.4296313,11.057901 32.2086815,11.1323177 C31.9873409,11.2069323 31.766,11.2587865 31.5446591,11.2878802 C31.323123,11.3163802 31.1125364,11.3306302 30.9121173,11.3306302 C30.499743,11.3306302 30.1127877,11.2625469 29.7516425,11.1261823 C29.3903017,10.9910052 29.0747151,10.7885365 28.803905,10.5205573 C28.5332905,10.2525781 28.3195754,9.91948437 28.1629553,9.52107813 C28.0061397,9.12286978 27.9273408,8.65954687 27.9273408,8.13110937 C27.9273408,7.73309896 27.9944078,7.35567187 28.1287374,6.99981772 C28.2628715,6.64376563 28.4556648,6.33184896 28.7075084,6.06367187 C28.9589609,5.79608854 29.2637933,5.58293228 29.6210279,5.42598437 C29.9784581,5.26903646 30.3820335,5.19066146 30.8325363,5.19066146" id="Fill-36" fill="#79B41D" fill-rule="nonzero" mask="url(#mask-20)"></path>
                </g>
                <g id="Fill-37-Clipped">
                    <mask id="mask-22" fill="white">
                        <use xlink:href="#path-21"></use>
                    </mask>
                    <g id="path-3"></g>
                    <path d="M35.468785,6.30936563 L35.468785,9.43684478 C35.468785,9.68087604 35.523338,9.86968854 35.6336174,10.0026885 C35.7427235,10.1356885 35.9040364,10.2023865 36.1169692,10.2023865 C36.2767179,10.2023865 36.4261035,10.1691365 36.5649302,10.1024385 C36.7041481,10.0357406 36.840042,9.94252187 36.9716339,9.82199063 L36.9716339,6.30956354 L38.4279471,6.30956354 L38.4279471,11.2382823 L37.5261591,11.2382823 C37.3445112,11.2382823 37.2260195,11.155949 37.1693158,10.9912823 L37.0797626,10.7058865 C36.9862989,10.7981156 36.88912,10.8812406 36.7888128,10.9554594 C36.6883102,11.030074 36.5811591,11.0932094 36.4667738,11.1456573 C36.3527794,11.1979073 36.2295949,11.238876 36.0985893,11.2693552 C35.9669973,11.2994385 35.8230866,11.3142823 35.6662708,11.3142823 C35.4003492,11.3142823 35.164539,11.267574 34.959623,11.1739594 C34.7543158,11.0805427 34.5812708,10.9499177 34.4404888,10.7818865 C34.2997067,10.6140531 34.1931425,10.4159385 34.1211872,10.1877406 C34.0492318,9.95914687 34.0132543,9.70898022 34.0132543,9.43664687 L34.0132543,6.30936563 L35.468785,6.30936563 Z" id="Fill-37" fill="#79B41D" fill-rule="nonzero" mask="url(#mask-22)"></path>
                </g>
                <g id="Fill-38-Clipped">
                    <mask id="mask-24" fill="white">
                        <use xlink:href="#path-23"></use>
                    </mask>
                    <g id="path-3"></g>
                    <path d="M39.1850027,11.2381438 L39.1850027,6.309425 L40.0496396,6.309425 C40.1215949,6.309425 40.1818185,6.31556041 40.2303102,6.32822709 C40.2789973,6.34109168 40.3198631,6.3604875 40.3525169,6.38760209 C40.3849749,6.41471668 40.4105893,6.45053959 40.4276005,6.49447709 C40.4448072,6.53900832 40.4592765,6.59264377 40.4721815,6.656175 L40.551958,7.11712291 C40.7304775,6.83825832 40.9314831,6.61777918 41.153215,6.45647709 C41.375338,6.29477918 41.6181872,6.21383127 41.8811759,6.21383127 C42.1031035,6.21383127 42.281623,6.2678625 42.4163436,6.37552918 L42.2286339,7.458925 C42.2159246,7.52562291 42.1912877,7.57233127 42.1535503,7.59924791 C42.1156174,7.62616459 42.0655615,7.63982082 42.0029917,7.63982082 C41.9501984,7.63982082 41.887042,7.63269582 41.8152821,7.61824791 C41.7429358,7.60399791 41.6522096,7.59707082 41.5431035,7.59707082 C41.1608409,7.59707082 40.859919,7.80310209 40.64112,8.21516459 L40.64112,11.23755 L39.1850027,11.23755 L39.1850027,11.2381438 Z" id="Fill-38" fill="#79B41D" fill-rule="nonzero" mask="url(#mask-24)"></path>
                </g>
                <g id="Fill-39-Clipped">
                    <mask id="mask-26" fill="white">
                        <use xlink:href="#path-25"></use>
                    </mask>
                    <g id="path-3"></g>
                    <path d="M44.8867179,10.2213073 C45.2220529,10.2213073 45.4682262,10.1017656 45.6260195,9.86268228 C45.7840083,9.62340104 45.8633938,9.25963022 45.8633938,8.77156772 C45.8633938,8.28370313 45.7843995,7.92092187 45.6260195,7.68322396 C45.4682262,7.44552604 45.2214666,7.32657813 44.8867179,7.32657813 C44.5421928,7.32657813 44.2905446,7.44552604 44.1306005,7.68322396 C43.970461,7.92092187 43.8910754,8.28370313 43.8910754,8.77156772 C43.8910754,9.25963022 43.9706564,9.62340104 44.1306005,9.86268228 C44.2905446,10.1017656 44.5421928,10.2213073 44.8867179,10.2213073 M44.8867179,6.23368228 C45.2560754,6.23368228 45.5923882,6.29186978 45.8962431,6.40943228 C46.1999021,6.52679687 46.4603492,6.69482813 46.6779749,6.91313022 C46.8954051,7.13163022 47.0649302,7.39703646 47.185377,7.70954687 C47.3056286,8.02166146 47.3660476,8.37236978 47.3660476,8.76226563 C47.3660476,9.15513022 47.3056286,9.50880728 47.185377,9.82448437 C47.064539,10.1395677 46.8950139,10.4075469 46.6779749,10.6276302 C46.4603492,10.8479115 46.1999021,11.017526 45.8962431,11.1360781 C45.5927794,11.255026 45.2560754,11.3140052 44.8867179,11.3140052 C44.514623,11.3140052 44.1749861,11.255026 43.8701538,11.1360781 C43.5647348,11.0171302 43.3013548,10.8477135 43.0811872,10.6276302 C42.8606286,10.4075469 42.6897348,10.1395677 42.5694831,9.82448437 C42.4484497,9.50880728 42.3890083,9.15513022 42.3890083,8.76226563 C42.3890083,8.37197396 42.4484497,8.02166146 42.5694831,7.70954687 C42.6897348,7.39703646 42.8606286,7.13202604 43.0811872,6.91313022 C43.3013548,6.69482813 43.5651257,6.52659896 43.8701538,6.40943228 C44.1749861,6.29186978 44.514623,6.23368228 44.8867179,6.23368228" id="Fill-39" fill="#79B41D" fill-rule="nonzero" mask="url(#mask-26)"></path>
                </g>
                <g id="Fill-40-Clipped">
                    <mask id="mask-28" fill="white">
                        <use xlink:href="#path-27"></use>
                    </mask>
                    <g id="path-3"></g>
                    <path d="M50.2137765,7.3408875 C50.1070169,7.3408875 50.0114021,7.351575 49.9249775,7.37156459 C49.8387487,7.39234582 49.7589722,7.42143959 49.6854524,7.46003332 C49.6119329,7.49783541 49.5436928,7.54592918 49.481123,7.60490832 C49.4187487,7.66368959 49.3559831,7.73078332 49.2930225,7.80678332 L49.2930225,9.89816877 C49.4033016,10.0218667 49.5215979,10.1079604 49.6500615,10.1570438 C49.7787206,10.2061271 49.9134415,10.2308667 50.0538323,10.2308667 C50.1885529,10.2308667 50.3121286,10.2041479 50.4255364,10.1497208 C50.5375754,10.0958875 50.6359273,10.0093979 50.7182457,9.89084582 C50.8019329,9.77189791 50.8666538,9.61772082 50.9131898,9.42752291 C50.9603128,9.23712709 50.9839722,9.00615832 50.9839722,8.73342918 C50.9839722,8.4737625 50.9650056,8.25486668 50.9274636,8.07753332 C50.8901174,7.90000209 50.8375195,7.75671041 50.7704524,7.64706459 C50.7033856,7.53761668 50.6226313,7.45943959 50.5283856,7.41174168 C50.4345308,7.36404377 50.3293353,7.3408875 50.2137765,7.3408875 L50.2137765,7.3408875 Z M47.8378826,12.8022 L47.8378826,6.30974168 L48.7392794,6.30974168 C48.8300056,6.30974168 48.9056759,6.33052291 48.9670727,6.37149168 C49.0280784,6.4122625 49.0710949,6.47440832 49.0959273,6.55674168 L49.2040559,6.9181375 C49.2983016,6.81403332 49.3988046,6.71824168 49.5069329,6.63293959 C49.6152569,6.5476375 49.73062,6.47381459 49.8545866,6.4122625 C49.978162,6.35011668 50.1113185,6.301825 50.2536647,6.26679373 C50.3960112,6.23196041 50.5518492,6.21474168 50.7209831,6.21474168 C50.9745866,6.21474168 51.2092235,6.27193959 51.4248938,6.38574168 C51.6409554,6.49954373 51.8269051,6.66460623 51.9841118,6.8801375 C52.1403409,7.09566873 52.2635251,7.35929373 52.3526872,7.67140832 C52.4420446,7.98372082 52.4864302,8.33779373 52.4864302,8.733825 C52.4864302,9.10452291 52.4355923,9.44711668 52.3341118,9.76061668 C52.2318492,10.0741167 52.0891118,10.3468458 51.9062904,10.5780125 C51.7236647,10.8091792 51.5044749,10.990075 51.2493072,11.1197104 C50.9939441,11.2495437 50.7115979,11.3148562 50.4016815,11.3148562 C50.1478826,11.3148562 49.9353409,11.2784396 49.7630784,11.2054083 C49.5908158,11.132575 49.4341954,11.0344083 49.2930225,10.9107104 L49.2930225,12.8027937 L47.8374917,12.8027937 L47.8378826,12.8022 Z" id="Fill-40" fill="#79B41D" fill-rule="nonzero" mask="url(#mask-28)"></path>
                </g>
                <g id="Fill-41-Clipped">
                    <mask id="mask-30" fill="white">
                        <use xlink:href="#path-29"></use>
                    </mask>
                    <g id="path-3"></g>
                    <path d="M55.329662,7.25043959 C55.0510308,7.25043959 54.8336005,7.33059582 54.6775671,7.4905125 C54.5205559,7.65062709 54.4177067,7.88100209 54.3676508,8.18203332 L56.1849134,8.18203332 C56.1849134,8.06486668 56.1702487,7.95086668 56.1403323,7.84003332 C56.1106118,7.72900209 56.0623158,7.63004373 55.9944666,7.5427625 C55.9273995,7.456075 55.8386286,7.38522082 55.7291313,7.3313875 C55.6190476,7.27775209 55.4862821,7.25043959 55.329662,7.25043959 M55.3013102,6.23354377 C55.6241313,6.23354377 55.9189917,6.28421041 56.1866733,6.38574168 C56.4541591,6.487075 56.6844944,6.63452291 56.8767011,6.82749168 C57.0694944,7.02105418 57.219662,7.2577625 57.3279861,7.53821041 C57.4363102,7.81865832 57.490081,8.1365125 57.490081,8.49098127 C57.490081,8.60221041 57.4853882,8.69246041 57.4765893,8.76252291 C57.4666174,8.83199168 57.4494107,8.88721041 57.4245784,8.928575 C57.3993548,8.96954377 57.3661144,8.99843959 57.3232933,9.01447082 C57.2814497,9.03010627 57.2270923,9.03802291 57.1615893,9.03802291 L54.3529861,9.03802291 C54.4003046,9.45008541 54.52388,9.74874168 54.7242989,9.93399168 C54.9247179,10.1194396 55.1830139,10.2118667 55.4993826,10.2118667 C55.6683211,10.2118667 55.8145784,10.1914813 55.9358072,10.1501167 C56.0582096,10.1087521 56.1667292,10.0630333 56.2627348,10.0119708 C56.3575671,9.96130418 56.4457513,9.9153875 56.5255278,9.87422082 C56.6053046,9.83325209 56.6889917,9.81227291 56.776785,9.81227291 C56.8927348,9.81227291 56.9801369,9.85541877 57.0397738,9.94111668 L57.4623158,10.4687625 C57.312539,10.6427313 57.1506396,10.7844396 56.9764216,10.8940854 C56.8023995,11.0033354 56.62388,11.0890333 56.4408631,11.1509813 C56.2576508,11.2127313 56.0752206,11.2548875 55.8916174,11.2788354 C55.708796,11.3027833 55.5341872,11.3148563 55.3677904,11.3148563 C55.026785,11.3148563 54.7067011,11.2586479 54.4079302,11.1462313 C54.108377,11.0336167 53.8471481,10.8663771 53.6236564,10.6449083 C53.3997738,10.4230438 53.2230139,10.1475438 53.0931815,9.81821041 C52.9631538,9.48848127 52.8982374,9.10491877 52.8982374,8.66772082 C52.8982374,8.33799168 52.9537682,8.02587709 53.0650251,7.73117918 C53.1762821,7.43608541 53.3354441,7.17839791 53.5442708,6.95653332 C53.7523158,6.73447082 54.0043548,6.55891877 54.2999973,6.4288875 C54.5948575,6.29846041 54.9288241,6.23354377 55.3013102,6.23354377" id="Fill-41" fill="#79B41D" fill-rule="nonzero" mask="url(#mask-30)"></path>
                </g>
                <g id="Fill-42-Clipped">
                    <mask id="mask-32" fill="white">
                        <use xlink:href="#path-31"></use>
                    </mask>
                    <g id="path-3"></g>
                    <path d="M18.465433,14.5240552 C18.0483659,14.5240552 17.7224162,14.6439927 17.4881704,14.8834719 C17.2539246,15.123149 17.0990643,15.4681177 17.0243715,15.9189719 L19.7453771,15.9189719 C19.7453771,15.7436177 19.7232821,15.5728156 19.6788967,15.4065656 C19.6341201,15.2407115 19.5613827,15.092274 19.4606844,14.9620448 C19.359986,14.8316177 19.2272207,14.7259302 19.0635614,14.6453781 C18.898729,14.5646281 18.6994832,14.5240552 18.465433,14.5240552 M18.4231983,13.0014823 C18.9059637,13.0014823 19.3478631,13.0768885 19.7485056,13.2286906 C20.1493436,13.3808885 20.4940643,13.6015656 20.7824721,13.8909198 C21.0704888,14.1804719 21.2955447,14.5351385 21.4574441,14.9547219 C21.619148,15.3750969 21.6997067,15.8502948 21.6997067,16.381701 C21.6997067,16.547951 21.6932542,16.683326 21.6789805,16.7876281 C21.6649022,16.8921281 21.6388967,16.9750552 21.6015503,17.0366073 C21.5638129,17.0983573 21.513757,17.1411073 21.450405,17.1648573 C21.3872486,17.1886073 21.3061033,17.2000865 21.2079469,17.2000865 L17.0028631,17.2000865 C17.0730587,17.8169927 17.2582263,18.2642844 17.5581704,18.5417635 C17.8583101,18.8190448 18.2450698,18.9581802 18.7184497,18.9581802 C18.9718575,18.9581802 19.1894832,18.9273052 19.3723045,18.8657531 C19.5551257,18.8040031 19.7178073,18.7351281 19.8609357,18.659326 C20.0038687,18.583326 20.1350698,18.514451 20.2547346,18.452899 C20.3742039,18.391149 20.499148,18.360274 20.6307402,18.360274 C20.804176,18.360274 20.9355726,18.4240031 21.0247346,18.552451 L21.6574721,19.3427323 C21.4322207,19.6033885 21.1899581,19.815951 20.9297067,19.9796281 C20.6692598,20.1435031 20.4021648,20.2717531 20.1278352,20.3639823 C19.8538967,20.4568052 19.579567,20.5207323 19.305433,20.5563573 C19.0311033,20.5921802 18.7698743,20.6095969 18.5213548,20.6095969 C18.0102374,20.6095969 17.5309916,20.5252844 17.0832263,20.3568573 C16.6356564,20.1886281 16.2442039,19.9382635 15.9090643,19.6063573 C15.5739246,19.2740552 15.3089805,18.8608052 15.1146229,18.367201 C14.9200698,17.8741906 14.8228911,17.2998365 14.8228911,16.645326 C14.8228911,16.1521177 14.9057961,15.6844406 15.0719972,15.2430865 C15.2385894,14.8019302 15.4781145,14.4150031 15.7897905,14.0830969 C16.1010754,13.7509927 16.4786452,13.4877635 16.9215224,13.2928156 C17.364986,13.0984615 17.8653492,13.0014823 18.4231983,13.0014823" id="Fill-42" fill="#004319" fill-rule="nonzero" mask="url(#mask-32)"></path>
                </g>
                <g id="Fill-43-Clipped">
                    <mask id="mask-34" fill="white">
                        <use xlink:href="#path-33"></use>
                    </mask>
                    <g id="path-3"></g>
                    <path d="M26.9926062,15.9918052 C26.9396173,16.056524 26.889757,16.1077844 26.8406788,16.1451906 C26.7919916,16.1839823 26.7221871,16.2023885 26.632243,16.2023885 C26.5462095,16.2023885 26.4679972,16.1818052 26.3987793,16.1398469 C26.3293659,16.0980865 26.2517402,16.051774 26.1655112,16.0003156 C26.0790866,15.9490552 25.9779972,15.9029406 25.861852,15.8609823 C25.7455112,15.8192219 25.601405,15.7980448 25.4287514,15.7980448 C25.2148408,15.7980448 25.0302598,15.8384198 24.8746173,15.9177844 C24.7189749,15.997149 24.5907067,16.1113469 24.4894218,16.2597844 C24.3883324,16.407826 24.3132486,16.5891177 24.2643659,16.8032635 C24.2156788,17.018201 24.1912374,17.2598573 24.1912374,17.5296177 C24.1912374,18.0948677 24.2987793,18.5294927 24.5146452,18.832899 C24.7303156,19.136899 25.0271313,19.288701 25.4060698,19.288701 C25.6086397,19.288701 25.7689749,19.262774 25.8870754,19.2119094 C26.005176,19.1608469 26.1054832,19.103649 26.1883883,19.0411073 C26.2707067,18.9785656 26.3465726,18.920576 26.415986,18.8669406 C26.4852039,18.8144927 26.5726062,18.787774 26.6778017,18.787774 C26.8160419,18.787774 26.921433,18.8388365 26.9924106,18.9411594 L27.4990307,19.573701 C27.3187514,19.7823052 27.1292821,19.9521177 26.9306229,20.0829406 C26.7319637,20.2139615 26.5284162,20.3166802 26.320176,20.3905031 C26.1123268,20.4647219 25.9029134,20.5155865 25.6931089,20.5440865 C25.4829134,20.5725865 25.2787793,20.5866385 25.0801201,20.5866385 C24.7236676,20.5866385 24.3830531,20.5183573 24.0588631,20.3819927 C23.7346732,20.2454302 23.4493938,20.0469198 23.2038073,19.7870552 C22.9582207,19.5267948 22.7632765,19.2069615 22.6187793,18.8273573 C22.4746732,18.447951 22.4023268,18.0151073 22.4023268,17.5296177 C22.4023268,17.1040969 22.4654832,16.7060865 22.591014,16.3359823 C22.7165447,15.966076 22.9022989,15.6452531 23.148081,15.3737115 C23.3934721,15.1025656 23.6971313,14.8894094 24.0592542,14.733649 C24.420986,14.5776906 24.8400084,14.5001073 25.3167123,14.5001073 C25.7740587,14.5001073 26.1752877,14.5741281 26.5203994,14.7219719 C26.8655112,14.8700135 27.176405,15.0865344 27.4538631,15.3709406 L26.9926062,15.9918052 Z" id="Fill-43" fill="#004319" fill-rule="nonzero" mask="url(#mask-34)"></path>
                </g>
                <g id="Fill-44-Clipped">
                    <mask id="mask-36" fill="white">
                        <use xlink:href="#path-35"></use>
                    </mask>
                    <g id="path-3"></g>
                    <path d="M30.7172318,19.2771625 C31.118461,19.2771625 31.4139077,19.1336729 31.6029861,18.8470896 C31.7920642,18.5605063 31.8868965,18.1248917 31.8868965,17.5404438 C31.8868965,16.9557979 31.7920642,16.5211729 31.6029861,16.2369646 C31.4135169,15.9517667 31.118461,15.8094646 30.7172318,15.8094646 C30.3048575,15.8094646 30.0027626,15.9517667 29.8115335,16.2369646 C29.6205,16.5211729 29.5244944,16.9557979 29.5244944,17.5404438 C29.5244944,18.1248917 29.6205,18.5605063 29.8115335,18.8470896 C30.0029581,19.1336729 30.3044665,19.2771625 30.7172318,19.2771625 M30.7172318,14.5000479 C31.1597179,14.5000479 31.5629021,14.5705062 31.9265893,14.7108292 C32.2904722,14.8511521 32.6023436,15.0520375 32.8627904,15.3146729 C33.124215,15.5763187 33.3263938,15.893975 33.4706954,16.2680375 C33.6151928,16.6419021 33.687539,17.0622771 33.687539,17.5293604 C33.687539,18.0000063 33.6153882,18.4239438 33.4706954,18.8017667 C33.3263938,19.1797875 33.124215,19.5004125 32.8627904,19.7640375 C32.6023436,20.0280583 32.2904722,20.230725 31.9265893,20.373225 C31.5625112,20.5155271 31.1593267,20.5865792 30.7172318,20.5865792 C30.2708352,20.5865792 29.8655,20.5159229 29.499271,20.373225 C29.1336285,20.230725 28.8186285,20.0280583 28.554271,19.7638396 C28.2901089,19.5000167 28.0855838,19.1795896 27.9410866,18.8017667 C27.7967849,18.4237458 27.7246341,17.9998083 27.7246341,17.5289646 C27.7246341,17.0622771 27.7969805,16.6419021 27.9410866,16.2678396 C28.0855838,15.8937771 28.2899134,15.5761208 28.554271,15.3140792 C28.8186285,15.0520375 29.1336285,14.8511521 29.499271,14.7108292 C29.8651089,14.5705062 30.2704441,14.5000479 30.7172318,14.5000479" id="Fill-44" fill="#004319" fill-rule="nonzero" mask="url(#mask-36)"></path>
                </g>
                <g id="Fill-45-Clipped">
                    <mask id="mask-38" fill="white">
                        <use xlink:href="#path-37"></use>
                    </mask>
                    <g id="path-3"></g>
                    <polygon id="Fill-45" fill="#004319" fill-rule="nonzero" mask="url(#mask-38)" points="34.3842738 20.4956563 36.1284077 20.4956563 36.1284077 11.9721771 34.3842738 11.9721771"></polygon>
                </g>
                <g id="Fill-46-Clipped">
                    <mask id="mask-40" fill="white">
                        <use xlink:href="#path-39"></use>
                    </mask>
                    <g id="path-3"></g>
                    <path d="M39.8181898,19.2771625 C40.2198102,19.2771625 40.5148661,19.1336729 40.7041396,18.8470896 C40.8932179,18.5605063 40.9880503,18.1248917 40.9880503,17.5404438 C40.9880503,16.9557979 40.8932179,16.5211729 40.7041396,16.2369646 C40.5146703,15.9517667 40.219419,15.8094646 39.8181898,15.8094646 C39.40562,15.8094646 39.1043072,15.9517667 38.9130784,16.2369646 C38.721458,16.5211729 38.6258436,16.9557979 38.6258436,17.5404438 C38.6258436,18.1248917 38.721458,18.5605063 38.9130784,18.8470896 C39.1043072,19.1336729 39.40562,19.2771625 39.8181898,19.2771625 M39.8181898,14.5000479 C40.2608714,14.5000479 40.6640559,14.5705062 41.0277431,14.7108292 C41.3914302,14.8511521 41.7034973,15.0520375 41.9645308,15.3146729 C42.2249775,15.5763187 42.4273519,15.893975 42.5718492,16.2680375 C42.7163462,16.6419021 42.7881062,17.0622771 42.7881062,17.5293604 C42.7881062,18.0000063 42.7163462,18.4239438 42.5718492,18.8017667 C42.4277431,19.1797875 42.2253687,19.5004125 41.9645308,19.7640375 C41.7034973,20.0280583 41.3914302,20.230725 41.0277431,20.3734229 C40.6636647,20.5159229 40.2604805,20.5867771 39.8181898,20.5867771 C39.3719888,20.5867771 38.9662626,20.5159229 38.6000334,20.3734229 C38.2347821,20.230725 37.9197821,20.0280583 37.6554246,19.7640375 C37.3908714,19.5004125 37.1867374,19.1797875 37.0422401,18.8017667 C36.8975476,18.4239438 36.8257877,18.0000063 36.8257877,17.5293604 C36.8257877,17.0622771 36.8981339,16.6419021 37.0422401,16.2680375 C37.1867374,15.893975 37.3908714,15.5763187 37.6554246,15.3146729 C37.9197821,15.0520375 38.2347821,14.8511521 38.6000334,14.7108292 C38.9662626,14.5705062 39.3719888,14.5000479 39.8181898,14.5000479" id="Fill-46" fill="#004319" fill-rule="nonzero" mask="url(#mask-40)"></path>
                </g>
                <g id="Fill-47-Clipped">
                    <mask id="mask-42" fill="white">
                        <use xlink:href="#path-41"></use>
                    </mask>
                    <g id="path-3"></g>
                    <path d="M45.9449497,17.2328615 C46.2335529,17.2328615 46.4427708,17.1600281 46.5720169,17.0137677 C46.701458,16.8677052 46.7659831,16.6788927 46.7659831,16.4471323 C46.7659831,16.2082469 46.701458,16.020226 46.5720169,15.8838615 C46.4427708,15.7467052 46.2335529,15.6786219 45.9449497,15.6786219 C45.6557599,15.6786219 45.4469329,15.7467052 45.3176872,15.8838615 C45.1884415,16.020226 45.1237206,16.208049 45.1237206,16.4471323 C45.1237206,16.5607365 45.1395585,16.6656323 45.1716257,16.7604344 C45.2031062,16.8554344 45.2529666,16.9377677 45.3208158,17.0078302 C45.3882738,17.0784865 45.4731339,17.1333094 45.5763743,17.1730906 C45.6792235,17.2128719 45.8024077,17.2328615 45.9449497,17.2328615 M47.2387765,20.7120385 C47.2387765,20.6170385 47.2096425,20.5410385 47.1513743,20.4844344 C47.0934973,20.4272365 47.0145027,20.3817156 46.9157599,20.3478719 C46.8162348,20.3134344 46.7000893,20.2886948 46.5667374,20.273851 C46.4339722,20.2586115 46.2898661,20.2469344 46.1361789,20.2392156 C45.9819051,20.2318927 45.8231339,20.2253615 45.6579107,20.219424 C45.4926872,20.2140802 45.3298102,20.2014135 45.1684973,20.1820177 C45.0597821,20.2582156 44.9710112,20.342726 44.9014021,20.4357469 C44.83238,20.5283719 44.7969888,20.6338615 44.7969888,20.7518198 C44.7969888,20.8351427 44.8147821,20.9113406 44.8503687,20.9796219 C44.8861508,21.0475073 44.9491118,21.1064865 45.0388604,21.1557677 C45.1291954,21.2052469 45.249838,21.2442365 45.401961,21.2729344 C45.5534973,21.3012365 45.7458995,21.3154865 45.9783856,21.3154865 C46.2294471,21.3154865 46.4357318,21.3004448 46.5968492,21.2701635 C46.7583575,21.2394865 46.8864302,21.197924 46.9822401,21.1450802 C47.0774636,21.0916427 47.1443353,21.0283094 47.1820727,20.9540906 C47.2198102,20.8802677 47.2387765,20.7993198 47.2387765,20.7120385 M45.9449497,14.4889448 C46.1924917,14.4889448 46.4257599,14.5132885 46.6451452,14.5627677 C46.8645308,14.612049 47.0686647,14.6821115 47.2559831,14.773351 L49.016542,14.773351 L49.016542,15.4167781 C49.016542,15.5155385 48.988581,15.5933198 48.9350056,15.6503198 C48.881039,15.7073198 48.7879666,15.7510594 48.6565698,15.7811427 L48.2297262,15.877726 C48.2819329,16.048924 48.3081339,16.2252677 48.3081339,16.407549 C48.3081339,16.7036323 48.2471286,16.9694344 48.1253128,17.2043615 C48.0034973,17.4402781 47.8363185,17.6403719 47.6245585,17.8054344 C47.4129944,17.9704969 47.162715,18.0975594 46.8739163,18.1866219 C46.5847262,18.2762781 46.2755923,18.3208094 45.9459273,18.3208094 C45.7613462,18.3208094 45.5892794,18.3091323 45.4283575,18.2865698 C45.300285,18.3623719 45.2359554,18.4494552 45.2359554,18.5480177 C45.2359554,18.646976 45.2877708,18.718424 45.39062,18.7617677 C45.4938604,18.8055073 45.6305364,18.8359865 45.7988882,18.8530073 C45.9678267,18.8700281 46.1610112,18.8815073 46.3786369,18.8866531 C46.5958714,18.8929865 46.8172123,18.906049 47.0422682,18.9268302 C47.2675195,18.9478094 47.4886647,18.9830385 47.7060949,19.0321219 C47.9237206,19.081799 48.1169051,19.1611635 48.286039,19.2714031 C48.4545866,19.381049 48.5904805,19.5284969 48.6935251,19.7123615 C48.796961,19.8968198 48.848581,20.1309552 48.848581,20.4159552 C48.848581,20.6813615 48.7844471,20.941424 48.656961,21.195549 C48.5296703,21.4500698 48.341961,21.6756948 48.0942235,21.8732156 C47.8470727,22.0703406 47.5432179,22.2290698 47.1832457,22.3490073 C46.8230784,22.468549 46.4105083,22.5285177 45.9455364,22.5285177 C45.4877989,22.5285177 45.0932179,22.4845802 44.7614021,22.3974969 C44.4295866,22.3096219 44.1540837,22.1950281 43.9345027,22.0525281 C43.7151174,21.9108198 43.5530225,21.7461531 43.4478267,21.5605073 C43.3428267,21.3744656 43.2904246,21.1805073 43.2904246,20.9796219 C43.2904246,20.7173823 43.369419,20.4967052 43.5262348,20.3164031 C43.6840278,20.1359031 43.8998938,19.9947885 44.1734415,19.8920698 C44.0422401,19.8047885 43.9370446,19.6931635 43.8584415,19.556601 C43.7800334,19.4196427 43.7409273,19.2470594 43.7409273,19.0382573 C43.7409273,18.950976 43.7552011,18.8589448 43.7853128,18.7617677 C43.8154246,18.6651844 43.8625476,18.5713719 43.925704,18.4805281 C43.989838,18.3890906 44.0702011,18.3014135 44.1677708,18.2182885 C44.2651452,18.1349656 44.3814861,18.0607469 44.5164021,17.9956323 C44.2129385,17.8329448 43.9738046,17.616424 43.7991954,17.3468615 C43.6249775,17.077299 43.5375754,16.7643927 43.5375754,16.407351 C43.5375754,16.1112677 43.5995585,15.844476 43.7235251,15.6073719 C43.8469051,15.3702677 44.0168211,15.1689865 44.2326872,15.003924 C44.448162,14.8386635 44.7023519,14.7119969 44.9946703,14.6225385 C45.2864021,14.5332781 45.6035529,14.4889448 45.9449497,14.4889448" id="Fill-47" fill="#004319" fill-rule="nonzero" mask="url(#mask-42)"></path>
                </g>
                <g id="Fill-48-Clipped">
                    <mask id="mask-44" fill="white">
                        <use xlink:href="#path-43"></use>
                    </mask>
                    <g id="path-3"></g>
                    <path d="M49.8726538,20.4956563 L51.6167877,20.4956563 L51.6167877,14.5912083 L49.8726538,14.5912083 L49.8726538,20.4956563 Z M51.8195529,12.9744271 C51.8195529,13.1149479 51.7912011,13.2469583 51.7348882,13.3700625 C51.6785754,13.4933646 51.6017318,13.6014271 51.5043575,13.6944479 C51.4067877,13.7880625 51.29338,13.8614896 51.1641339,13.9163125 C51.0350837,13.9717292 50.8968436,13.9986458 50.7503912,13.9986458 C50.6076538,13.9986458 50.4746928,13.9717292 50.3513128,13.9163125 C50.2273462,13.8614896 50.117458,13.7876667 50.0218436,13.6944479 C49.9264246,13.6014271 49.8513409,13.4935625 49.7971789,13.3700625 C49.7428211,13.2469583 49.7156425,13.11475 49.7156425,12.9744271 C49.7156425,12.8301458 49.7430169,12.6949688 49.7971789,12.5698854 C49.8513409,12.4448021 49.9264246,12.3349583 50.0218436,12.2401563 C50.117458,12.1449583 50.2273462,12.0709375 50.3513128,12.0178958 C50.4746928,11.9646563 50.6078492,11.9381354 50.7503912,11.9381354 C50.8968436,11.9381354 51.0346928,11.9646563 51.1641339,12.0178958 C51.2937708,12.0707396 51.4067877,12.1447604 51.5043575,12.2401563 C51.6017318,12.3349583 51.6785754,12.4448021 51.7348882,12.5698854 C51.7912011,12.6949688 51.8195529,12.8301458 51.8195529,12.9744271 L51.8195529,12.9744271 Z" id="Fill-48" fill="#004319" fill-rule="nonzero" mask="url(#mask-44)"></path>
                </g>
                <g id="Fill-49-Clipped">
                    <mask id="mask-46" fill="white">
                        <use xlink:href="#path-45"></use>
                    </mask>
                    <g id="path-3"></g>
                    <path d="M55.0237738,15.718324 C54.690785,15.718324 54.4293604,15.8143135 54.242042,16.0060948 C54.0547235,16.197876 53.9307569,16.4737719 53.8707292,16.834574 L56.0475727,16.834574 C56.0475727,16.694251 56.0299749,16.5568969 55.9941928,16.4242927 C55.9584107,16.2912927 55.9005334,16.1733344 55.8197794,16.0686365 C55.7392206,15.9645323 55.6332431,15.8800219 55.5022374,15.8151052 C55.3714273,15.7507823 55.2116789,15.718324 55.0237738,15.718324 M54.9907292,14.5001469 C55.3767067,14.5001469 55.7306174,14.5607094 56.0505056,14.6822302 C56.3705893,14.803751 56.6470698,14.9800948 56.8772096,15.2116573 C57.1077401,15.4436156 57.2876286,15.7274281 57.417461,16.0630948 C57.5463158,16.3987615 57.6110364,16.7795531 57.6110364,17.204876 C57.6110364,17.3382719 57.6055615,17.4459385 57.5942206,17.5294594 C57.5834666,17.6129802 57.5627401,17.6792823 57.5326286,17.7287615 C57.5023211,17.7782406 57.462042,17.8126781 57.4115949,17.8312823 C57.3607569,17.8498865 57.2958409,17.8595844 57.2176286,17.8595844 L53.8535225,17.8595844 C53.9102262,18.3531885 54.0580476,18.710824 54.2979636,18.9328865 C54.5376842,19.154949 54.8474051,19.266376 55.2255615,19.266376 C55.4289134,19.266376 55.6033267,19.2416365 55.7489973,19.1921573 C55.8956452,19.1434698 56.0254775,19.0876573 56.1402543,19.0270948 C56.2548353,18.9665323 56.3598353,18.9115115 56.4544722,18.8620323 C56.5510642,18.812751 56.650785,18.7882094 56.755785,18.7882094 C56.8944163,18.7882094 56.9998072,18.8392719 57.0709805,18.9415948 L57.5772096,19.5741365 C57.3969302,19.7827406 57.2031591,19.9525531 56.994919,20.083574 C56.7864831,20.2143969 56.5727682,20.3165219 56.3537738,20.3905427 C56.1345837,20.4647615 55.9148072,20.515626 55.6956174,20.544324 C55.4756452,20.572824 55.2670139,20.586876 55.0683548,20.586876 C54.6593046,20.586876 54.2762599,20.5197823 53.9178519,20.3848031 C53.5596396,20.2500219 53.2463995,20.0499281 52.9781313,19.784126 C52.7102543,19.5185219 52.4981035,19.188199 52.3428519,18.7929594 C52.1872096,18.3985115 52.1093882,17.9393448 52.1093882,17.4152615 C52.1093882,17.0204177 52.1754775,16.6461573 52.3088297,16.2936677 C52.4419861,15.9405844 52.6330195,15.6312406 52.8831035,15.3656365 C53.1322096,15.0996365 53.4341088,14.889251 53.7888016,14.7334906 C54.1442765,14.5777302 54.5441369,14.5001469 54.9907292,14.5001469" id="Fill-49" fill="#004319" fill-rule="nonzero" mask="url(#mask-46)"></path>
                </g>
                <g id="Fill-50-Clipped">
                    <mask id="mask-48" fill="white">
                        <use xlink:href="#path-47"></use>
                    </mask>
                    <g id="path-3"></g>
                    <path d="M19.9137877,10.4151667 C19.6265531,9.99360418 18.9474749,10.0076563 18.5701006,10.2318958 C17.3488156,10.9566667 16.8574469,12.5754271 16.8245978,12.5859167 L16.8249888,12.5871042 C16.8461062,12.559 18.5100726,12.6629063 19.6089553,11.7578333 C19.9487877,11.4775833 20.2006313,10.8365313 19.9137877,10.4153646 L19.9137877,10.4151667 Z" id="Fill-50" fill="#004319" fill-rule="nonzero" mask="url(#mask-48)"></path>
                </g>
            </g>
        </g>
    </g>
</svg>