<?xml version="1.0" encoding="UTF-8"?>
<svg width="71px" height="39px" viewBox="0 0 71 39" version="1.1" xmlns="http://www.w3.org/2000/svg" xmlns:xlink="http://www.w3.org/1999/xlink">
    <!-- Generator: Sketch 61.2 (89653) - https://sketch.com -->
    <title>Element/Logo/Greens-EFA</title>
    <desc>Created with Sketch.</desc>
    <g id="Element/Logo/Greens-EFA" stroke="none" stroke-width="1" fill="none" fill-rule="evenodd">
        <g id="GreensEFA_RGB_Web_fr" fill-rule="nonzero">
            <g id="BM">
                <path d="M66.4114409,20.9775705 L65.0545628,22.0672347 L65.6270538,20.480035 L64.4250705,19.5513021 L65.9789748,19.5513021 L66.4114409,18.179087 L66.8885168,19.5513021 L68.4857917,19.5513021 L67.2082196,20.480035 L67.7782324,22.0672347 L66.4114409,20.9775705 Z M65.5849225,29.3005408 L64.2144136,28.2108767 L62.8513396,29.3005408 L63.4287873,27.7035133 L62.2268039,26.7760089 L63.7807082,26.7760089 L64.2144136,25.4037937 L64.6902503,26.7760089 L66.2875251,26.7760089 L65.0124314,27.7035133 L65.5849225,29.3005408 Z M59.8575336,9.8905142 L60.4287855,11.4777138 L59.0582766,10.3892782 L57.7013984,11.4777138 L58.2738895,9.8905142 L57.0719061,8.96178128 L58.6258104,8.96178128 L59.0582766,7.5895661 L59.5341133,8.96178128 L61.1363448,8.96178128 L59.8575336,9.8905142 Z M60.1450183,33.1088372 L58.7745094,32.0179445 L57.4188704,33.1088372 L57.9901223,31.5204091 L56.7881389,30.5929046 L58.3420432,30.5929046 L58.7757485,29.2206894 L59.2515853,30.5929046 L60.8488601,30.5929046 L59.5750055,31.5204091 L60.1450183,33.1088372 Z M56.1797122,27.1850936 L48.2639701,27.1850936 L48.2639701,25.1789814 L53.6220899,25.1789814 L53.6220899,21.2478367 L48.2144038,21.2478367 L48.2144038,19.349831 L53.6220899,19.349831 L53.6220899,15.443256 C53.6220899,15.4653687 48.1400543,15.443256 48.1400543,15.443256 L48.1400543,13.5845617 L56.1797122,13.5845617 L56.1797122,27.1850936 Z M53.7385707,34.7267489 L52.3754968,33.6383132 L51.0186186,34.7267489 L51.5911097,33.1395492 L50.3878871,32.2120448 L51.9430306,32.2120448 L52.3754968,30.8398296 L52.8513335,32.2120448 L54.4448909,32.2120448 L53.168558,33.1395492 L53.7385707,34.7267489 Z M47.1016398,33.1690328 L45.7311309,32.0793687 L44.3680569,33.1690328 L44.9393088,31.5818332 L43.7373254,30.6543287 L45.2912297,30.6543287 L45.7249351,29.2821136 L46.2044893,30.6518718 L47.8017641,30.6518718 L46.5279096,31.5793762 L47.1016398,33.1690328 Z M44.815393,8.84507542 L45.2478592,7.47286025 L45.7249351,8.84507542 L47.3234491,8.84507542 L46.0471162,9.77257986 L46.6183681,11.3597795 L45.2478592,10.2701154 L43.8922202,11.3597795 L44.4634721,9.77257986 L43.2614887,8.84507542 L44.815393,8.84507542 Z M41.9913516,29.2378882 L40.6220819,28.148224 L39.2652037,29.2378882 L39.8364556,27.6506886 L38.6319939,26.7207272 L40.1858982,26.7207272 L40.6196036,25.348512 L41.0954403,26.7207272 L42.6939543,26.7207272 L41.4176214,27.6494601 L41.9913516,29.2378882 Z M36.9293907,20.1716859 L38.483295,20.1716859 L38.9157611,18.7982422 L39.3915979,20.1716859 L40.9901119,20.1716859 L39.713779,21.0991903 L40.28627,22.6876185 L38.9157611,21.5979543 L37.5526872,22.6876185 L38.1251783,21.0991903 L36.9293907,20.1716859 Z M39.6555386,13.2553283 L40.0880047,11.8831131 L40.5650806,13.2553283 L42.1623555,13.2553283 L40.8860226,14.1840612 L41.4585136,15.7712609 L40.0805698,14.6815967 L38.7174958,15.7712609 L39.2899869,14.1840612 L38.0867644,13.2553283 L39.6555386,13.2553283 Z M51.8612462,6.66083319 L52.2937123,5.28861801 L52.7707882,6.66083319 L54.3693022,6.66083319 L53.0929693,7.5895661 L53.6642212,9.17676575 L52.2937123,8.08833008 L50.9380733,9.17676575 L51.5093252,7.5895661 L50.3073419,6.66083319 L51.8612462,6.66083319 Z M64.1636081,13.2602422 L64.5960743,11.8880271 L65.0731502,13.2602422 L66.66299,13.2602422 L65.3878963,14.1889752 L65.9591482,15.7761748 L64.5886393,14.6815967 L63.2317612,15.7712609 L63.8042522,14.1840612 L62.6022688,13.2553283 L64.1636081,13.2602422 Z M52.5712838,3.42009583 C42.6059741,3.42009583 34.526663,10.8966415 34.526663,20.1176327 C34.526663,29.3386238 42.6059741,36.816398 52.5712838,36.816398 C62.5365935,36.816398 70.6146653,29.3410807 70.6146653,20.1176327 C70.6146653,10.8941846 62.5291585,3.42009583 52.5638488,3.42009583" id="Shape" fill="#008200"></path>
                <path d="M25.0532991,0.57370142 L25.0532991,0.57370142 C25.0532991,0.57370142 24.8302507,0.885736025 24.4857647,1.40661269 C24.1412787,1.92748935 23.6741161,2.65720807 23.1945619,3.49503327 C22.6800221,4.38295158 22.217866,5.29971082 21.8104223,6.2406921 C21.4107893,7.13615679 21.1268403,8.07807652 20.9653164,9.04408962 C20.8467124,9.76870479 20.9049249,10.5109443 21.1350811,11.2086761 C21.3108477,11.7107807 21.6008672,12.1660224 21.9826653,12.5391229 C22.2590821,12.8092875 22.5759061,13.0355349 22.9219471,13.2098744 C23.0648972,13.2841709 23.2141736,13.3458335 23.3680441,13.3941469 C23.3680441,13.3941469 23.5762226,13.2295302 23.8971646,12.9248665 C24.3252506,12.5188485 24.7251707,12.0846144 25.0941913,11.6251318 C25.5902893,11.016517 26.0201818,10.3576741 26.37672,9.65955945 C26.7752197,8.88467324 27.0387414,8.04858541 27.1561505,7.18662378 C27.2551141,6.33798686 27.2073411,5.47883224 27.0148864,4.64612156 C26.8475402,3.9184179 26.59814,3.2116903 26.2713916,2.53927374 C26.0335684,2.04132882 25.7585353,1.56170348 25.4485906,1.10440594 C25.3276339,0.920757379 25.1969252,0.743606429 25.0570166,0.57370142" id="Path" fill="#FFBE00"></path>
                <path d="M9.24411967,20.126232 L9.22801061,20.126232 L9.21561903,20.126232 L9.20074913,20.126232 L9.18340092,20.126232 C8.16729125,20.2859348 7.10533273,20.5144326 6.07807064,20.7662715 C5.05080855,21.0181105 4.05948204,21.296976 3.18587556,21.5549574 C2.31226907,21.8129388 1.55762177,22.0463505 1.00123977,22.2281659 C0.44485777,22.4099814 0.0904585437,22.5205448 0.0161090557,22.5303727 L0.0037174744,22.5303727 L0.0037174744,22.5303727 C0.220548902,22.7264427 0.456296371,22.9009071 0.707559294,23.0512493 C1.30806744,23.4443193 1.93628562,23.7941088 2.58736218,24.0979166 C3.44231225,24.503889 4.33940538,24.8161347 5.26270459,25.0291065 C6.27375762,25.269306 7.32010295,25.3275596 8.35192581,25.2010941 L8.36431739,25.2010941 L8.37670897,25.2010941 L8.38910056,25.2010941 L8.40149214,25.2010941 L8.4262753,25.2010941 L8.4498193,25.2010941 L8.47336331,25.2010941 L8.49566816,25.2010941 C8.99127644,25.1316185 9.48060194,25.0235881 9.95911391,24.8780031 C10.4049564,24.7441979 10.8409394,24.5800092 11.2639474,24.38661 C11.651815,24.2094412 12.0287652,24.0096682 12.3928205,23.788339 C12.7385456,23.5782684 13.0532918,23.3632839 13.3358198,23.1507564 C13.6183479,22.9382289 13.869897,22.7306154 14.0879888,22.5365151 C14.3060806,22.3424148 14.4882369,22.1679703 14.638175,22.0156384 C14.7881132,21.8633066 14.8996374,21.7416868 14.9764652,21.6544645 C15.053293,21.5672422 15.0941852,21.5193314 15.100381,21.5193314 L15.100381,21.5193314 C15.0074323,21.3987095 14.8962498,21.293043 14.7707649,21.2060683 C14.4502077,20.9612583 14.0996186,20.7577531 13.7273938,20.6004264 C13.1462565,20.3533166 12.5331415,20.1879198 11.9058313,20.1090333 C11.0212558,19.9970003 10.125439,20.004439 9.24288051,20.131146" id="Path" fill="#FFBE00"></path>
                <path d="M36.7992791,13.7614632 L36.7583868,13.7614632 L36.7162555,13.7676056 L36.6753632,13.7676056 L36.634471,13.7749765 C35.6658846,13.9113895 34.7242506,14.1948022 33.8426478,14.6152587 C33.1048825,14.9692316 32.4091493,15.4035119 31.768297,15.9100794 C31.3075274,16.2696606 30.8746683,16.663064 30.4733768,17.0869658 C30.177218,17.3990004 30.0210841,17.6017001 30.0136491,17.6029286 C30.1125527,17.7261002 30.2280469,17.8352257 30.3568959,17.927248 C30.6894392,18.1844089 31.0527933,18.3998004 31.438681,18.568516 C32.0366043,18.833549 32.6688774,19.0146505 33.3172447,19.1065914 C34.2240736,19.2339598 35.1442202,19.2376797 36.0520667,19.1176477 C37.1151235,18.9611275 38.168744,18.7470514 39.2082025,18.4763798 C40.2441387,18.212256 41.2367043,17.9149632 42.1053542,17.6360976 C42.974004,17.357232 43.7162598,17.0943367 44.2565327,16.899008 C44.7968056,16.7036792 45.1239434,16.5796025 45.1722706,16.5734601 L45.1722706,16.5734601 C44.9496428,16.368034 44.7077349,16.1841553 44.4498414,16.0243283 C43.8429801,15.6148661 43.207786,15.248281 42.5489728,14.9272933 C41.6916021,14.5060038 40.7903345,14.1789216 39.8612388,13.951878 C38.8603732,13.7016473 37.8216498,13.635855 36.7968007,13.7577777" id="Path" fill="#FFBE00"></path>
                <path d="M4.43494696,13.7553208 C4.45105601,13.7909468 4.57621098,14.0759547 4.8066944,14.5022382 C5.10474536,15.0552519 5.438354,15.5886948 5.80545585,16.0992657 C6.27452198,16.7553208 6.81471685,17.3584222 7.41636142,17.8977644 C8.05533938,18.4789796 8.7978451,18.9372251 9.60595384,19.2490954 C9.87078515,19.3478068 10.1424524,19.4274553 10.4188416,19.487421 C10.6864495,19.5456068 10.9575604,19.5866412 11.2304902,19.6102693 C11.4951105,19.6312659 11.7607376,19.6370085 12.0260297,19.6274681 C12.2830951,19.6191075 12.5395407,19.5973744 12.7943077,19.5623585 C13.0570092,19.527961 13.3122758,19.4812786 13.5588683,19.4259969 C13.8054608,19.3707152 14.0409008,19.3031486 14.2651884,19.2392675 C14.489476,19.1753864 14.7026112,19.097992 14.9008765,19.0230546 C15.0991418,18.9481171 15.2837764,18.8731797 15.4523019,18.7994707 C15.6208274,18.7257618 15.7732439,18.6545098 15.9070729,18.5894002 C16.040902,18.5242906 16.1549046,18.4665519 16.2490806,18.4112702 C16.3432566,18.3559885 16.4163669,18.319134 16.4659333,18.2884219 L16.5440002,18.2429681 C16.5516257,18.0788009 16.5437434,17.9142865 16.5204562,17.751575 C16.4724414,17.3645668 16.3685273,16.9864173 16.2119058,16.6287418 C15.9942288,16.1341033 15.6717767,15.691671 15.2664282,15.3314641 C14.7101752,14.8530694 14.0498408,14.5087183 13.337059,14.3253367 C12.4186275,14.1177947 11.4858353,13.9785885 10.5464749,13.9088811 C9.56506162,13.8265728 8.56382185,13.7860328 7.67286716,13.776205 C6.78191246,13.7663771 5.98389462,13.776205 5.40768609,13.776205 C5.08630896,13.7960591 4.76381666,13.789073 4.44362106,13.7553208" id="Shape" fill="#FFBE00"></path>
                <path d="M13.5650641,6.21120852 C13.5650641,6.21120852 13.5043453,6.50850133 13.4411483,6.99252351 C13.3529999,7.62471137 13.2996372,8.26118845 13.2812969,8.89912866 C13.2516438,9.69764158 13.3010333,10.4971132 13.4287567,11.2860705 C13.5444758,12.0713493 13.8156833,12.8261921 14.2267745,13.5071673 C14.5298139,13.9857489 14.9397991,14.3888396 15.4250404,14.6852822 C15.8631503,14.9489077 16.3427436,15.1378466 16.8438765,15.2442418 C17.2891212,15.3411284 17.7436719,15.3897343 18.1995155,15.3892028 C18.5380322,15.3914547 18.8763014,15.3705207 19.2119077,15.3265501 C19.2726264,15.3191792 19.3271494,15.3105799 19.3754766,15.303209 L19.4993924,15.2810963 L19.5762202,15.2663545 L19.6022425,15.2589836 C19.7093337,15.0821823 19.8065475,14.8996824 19.8934447,14.7123088 C20.1073653,14.2672795 20.2787066,13.8033378 20.405217,13.3265803 C20.5716706,12.7271021 20.6369879,12.1044621 20.5985256,11.4838563 C20.5558486,10.7967168 20.3268036,10.1337523 19.935576,9.56496628 C19.4659854,8.95385844 18.8815023,8.43865477 18.2143854,8.04779015 C17.5456791,7.64138057 16.8404851,7.29716744 16.1078166,7.01955013 C15.4176055,6.75296939 14.7806782,6.55886912 14.3184722,6.42742147 C13.8562662,6.29597382 13.5663032,6.22840728 13.5675424,6.21489397" id="Path" fill="#FFBE00"></path>
                <path d="M40.5155143,6.47164685 C40.0371993,6.53552795 39.5155137,6.6239787 38.9702841,6.74314153 C38.3993243,6.86753147 37.8351788,7.02088393 37.2800724,7.20259406 C36.6901282,7.39519044 36.1135161,7.62581803 35.5539251,7.89300133 C34.9760164,8.16708423 34.4226063,8.48928326 33.899649,8.85613177 C33.0439544,9.43060459 32.2635116,10.1081763 31.5762275,10.8733004 C31.0542896,11.4546026 30.5972761,12.0901452 30.2131536,12.7688492 C29.9566482,13.2184132 29.7406118,13.6895166 29.5675522,14.1766903 C29.5013775,14.3569583 29.4467459,14.5411875 29.4039833,14.7282791 C29.4537208,14.7392949 29.5042801,14.7462793 29.5551606,14.7491633 C29.6530541,14.7589911 29.8029922,14.7700475 29.9839093,14.7749614 C30.1648264,14.7798753 30.3990273,14.7749614 30.662968,14.7675905 C30.9269087,14.7602196 31.2267849,14.730736 31.5576402,14.6865106 C31.8884954,14.6422853 32.2267855,14.5820896 32.598533,14.4985528 C32.998745,14.4076485 33.3941178,14.2969466 33.7831682,14.1668625 C34.2249295,14.0200607 34.6584314,13.8498762 35.0818059,13.6570421 C35.5562806,13.4399516 36.0183577,13.1971647 36.4659455,12.9297804 C37.4177839,12.3462563 38.3140866,11.678073 39.1437662,10.933496 C39.8975718,10.2572329 40.6128451,9.5399192 41.2862707,8.78487977 C41.8934581,8.10921429 42.3792081,7.50602928 42.7137808,7.07114641 C43.0483535,6.63626353 43.2305098,6.36722582 43.2305098,6.36354037 C43.2305098,6.35985492 43.1635952,6.33651375 43.0334836,6.32791437 C42.903372,6.319315 42.7125417,6.31317258 42.4733841,6.31685803 C42.2342266,6.32054348 41.9430245,6.33282831 41.6059735,6.35616948 C41.2689224,6.37951065 40.9070883,6.41759361 40.5093185,6.47164685" id="Path" fill="#FFBE00"></path>
                <path d="M35.9157593,0 C35.8934545,0 35.552686,0.21866992 35.0173697,0.597042591 C34.4820533,0.975415262 33.7484717,1.51717613 32.9405406,2.17441437 C32.0597296,2.88868455 31.2168006,3.64767371 30.4151364,4.44833585 C29.585102,5.27013569 28.83499,6.16761561 28.1747385,7.12888509 C27.640833,7.89955572 27.2233713,8.74342705 26.9355803,9.63376131 C26.7365953,10.2488241 26.6350167,10.8907571 26.6344649,11.536681 C26.6358915,11.9458516 26.6934196,12.3529307 26.8054687,12.7467365 C26.84613,12.8932894 26.9009048,13.0356288 26.9690376,13.1717915 C26.9690376,13.1717915 27.206956,13.0919401 27.5985299,12.9199525 C28.1383854,12.6813279 28.6623698,12.4088727 29.1673041,12.10424 C29.8832239,11.6726696 30.5587776,11.1784891 31.1858927,10.6276038 C31.9466243,9.96062778 32.62279,9.20448363 33.1995247,8.37579503 C33.7940207,7.49605002 34.2850292,6.55175747 34.6629704,5.56134117 C35.0009956,4.68130302 35.2739193,3.77802628 35.4795756,2.85867924 C35.6654494,2.03559583 35.7744953,1.32553283 35.8364532,0.819397959 C35.8984111,0.313263088 35.9157593,0.0135133097 35.9169985,0.012284827 L35.9169985,0.012284827 L35.9157593,0 Z" id="Path" fill="#FFBE00"></path>
                <path d="M21.7447469,25.737941 L21.7447469,25.737941 C21.7447469,25.737941 21.5316117,25.9013292 21.2032348,26.198622 C20.7675061,26.5950349 20.3589173,27.0198032 19.9801857,27.4701016 C19.4732884,28.0663241 19.0321209,28.7145495 18.6641998,29.4037334 C18.2528744,30.1652067 17.9774424,30.9914496 17.8500729,31.845957 C17.7395147,32.6983514 17.7848493,33.5635232 17.983902,34.3999725 C18.1599201,35.14976 18.4205462,35.8775123 18.7608541,36.5694729 C19.0142482,37.090932 19.3040912,37.5941979 19.6282648,38.0755927 C19.8760964,38.4367666 20.0433828,38.6406948 20.0433828,38.6406948 C20.0433828,38.6406948 20.2813012,38.3397165 20.640657,37.8323531 C21.0000129,37.3249898 21.4808062,36.6038705 21.9777086,35.783244 C22.5092254,34.9074283 22.9831562,33.9985085 23.3965447,33.0621548 C23.8073158,32.163372 24.0904717,31.2124914 24.2379331,30.2366446 C24.3478268,29.4942592 24.2794733,28.7366421 24.0384286,28.0253758 C23.8520996,27.5074026 23.552501,27.0367054 23.1611047,26.6470182 C22.8775961,26.3651542 22.5530431,26.1270458 22.1982788,25.9406406 C22.0521356,25.8609536 21.8991125,25.7943515 21.7410294,25.7416264" id="Path" fill="#FFBE00"></path>
                <path d="M13.4200826,24.38661 C13.1016189,24.4283784 12.7546547,24.4873456 12.3853855,24.5684255 C12.0161164,24.6495053 11.6220641,24.7539264 11.2106636,24.8841455 C10.7992631,25.0143647 10.3667969,25.1716105 9.91946085,25.3632538 C9.44913848,25.5643872 8.98962321,25.7895002 8.54275616,26.0376908 C7.57287601,26.5873157 6.64698336,27.2099379 5.77323774,27.9000705 C4.92069694,28.5646797 4.14994059,29.2514015 3.50310004,29.8656429 C2.8562595,30.4798842 2.33085645,31.0253305 1.96778311,31.418445 C1.60470978,31.8115594 1.40272701,32.0511136 1.40147623,32.0523421 C1.40024869,32.0535705 1.49814218,32.0891965 1.68029843,32.1063953 C1.86245467,32.1235941 2.13011283,32.1383358 2.46344637,32.1420213 C2.7967799,32.1457067 3.19702798,32.1420213 3.64436407,32.1125377 C4.09170015,32.0830541 4.59108088,32.0437427 5.1202014,31.9737192 C5.5762116,31.912295 6.05576579,31.8324437 6.54647241,31.7280226 C7.03717903,31.6236016 7.53779892,31.4933824 8.0446146,31.3361366 C8.55757128,31.176777 9.06034648,30.9868351 9.55019173,30.7673492 C10.0493877,30.5450706 10.5314733,30.2868064 10.9925718,29.9946335 C11.8700984,29.464331 12.6758507,28.8252824 13.3903428,28.0929423 C13.9311818,27.5389487 14.4071464,26.9261434 14.8091788,26.2661886 C15.0758818,25.8292761 15.3027215,25.3696383 15.4869983,24.8927449 C15.5558915,24.7139165 15.6146368,24.5314062 15.6629588,24.3460701 C15.6107676,24.3342818 15.5577414,24.3264786 15.5043466,24.3227289 C15.4027356,24.3116726 15.2503191,24.3006162 15.0570105,24.2957023 C14.8637018,24.2907884 14.6257834,24.2957023 14.3506903,24.3043017 C14.0755972,24.3129011 13.7645685,24.3436131 13.4200826,24.3902955" id="Path" fill="#FFBE00"></path>
                <path d="M18.0991437,25.8841304 C18.0991437,25.8841304 17.8575078,25.9602964 17.4597381,26.129827 C16.9118284,26.3569945 16.3784122,26.6170972 15.8624633,26.908685 C15.129181,27.3213038 14.432729,27.7951676 13.7806776,28.3251256 C12.9996684,28.9574282 12.2963671,29.6785854 11.6852612,30.4737418 C11.0598346,31.3067186 10.5338188,32.2087006 10.1177262,33.1616619 C9.74793759,34.0036204 9.44184683,34.871687 9.20198829,35.7586744 C9.02589935,36.4062405 8.88321113,37.0622819 8.77447874,37.7242467 C8.69393346,38.2156398 8.66791114,38.5031047 8.66910836,38.5067902 L8.66910836,38.5067902 C9.00337825,38.3472957 9.32740865,38.1675988 9.63941111,37.9687147 C10.2069455,37.628425 10.9789411,37.1358035 11.8265252,36.5326185 C12.7479876,35.881245 13.6305148,35.1773679 14.4696495,34.4245421 C15.3369745,33.6551225 16.1202977,32.7974315 16.8067017,31.8656127 C17.3607801,31.1184881 17.7977688,30.292629 18.1028612,29.4160182 C18.3119769,28.8091679 18.4207737,28.1727968 18.4250423,27.5315257 C18.4281678,27.1225565 18.3731027,26.7151937 18.2614734,26.3214703 C18.2209431,26.1736879 18.1661679,26.0301133 18.0979045,25.8927298" id="Path" fill="#FFBE00"></path>
                <path d="M32.3110483,19.6766074 C32.0533034,19.7110049 31.8054718,19.7556398 31.5675534,19.810512 C31.3271567,19.8633367 31.0979125,19.9259894 30.8785815,19.9923274 C30.6592505,20.0586655 30.4547894,20.128689 30.2590024,20.199941 C30.0632154,20.271193 29.887255,20.3461304 29.7249253,20.4173824 C29.5625956,20.4886344 29.4151357,20.556201 29.2862633,20.6200821 C29.1573909,20.6839632 29.0458666,20.7429303 28.9541689,20.7908412 L28.7422729,20.9136894 C28.7159404,20.9300604 28.6886286,20.9448294 28.6604884,20.9579148 C28.656943,21.1264504 28.6681373,21.2949735 28.6939457,21.4615927 C28.7506812,21.8632853 28.864578,22.2549743 29.0322359,22.6249658 C29.268397,23.1440347 29.6091219,23.6097495 30.0334757,23.9934956 C30.6150629,24.5082365 31.3031806,24.8906316 32.0495859,25.1138718 C32.9997957,25.3713051 33.967662,25.5597618 34.9454985,25.6777453 C35.9640865,25.81165 36.995066,25.8976437 37.919478,25.9553824 C38.84389,26.0131211 39.666691,26.0438332 40.2652044,26.0659459 C40.6001113,26.0632303 40.9347646,26.0849924 41.2664441,26.1310555 C41.2466176,26.091744 41.1016361,25.7772524 40.8401737,25.3030581 C40.5035987,24.6930871 40.1312113,24.1032207 39.7249314,23.5365 C39.2156736,22.8173177 38.6344503,22.1509651 37.99011,21.5475865 C37.3231507,20.9136138 36.5444394,20.4064406 35.6927108,20.0512946 C35.4106744,19.9398487 35.1207564,19.849106 34.8253002,19.7797999 C34.539719,19.7138485 34.249897,19.667466 33.9578895,19.6409814 C33.6785986,19.6159531 33.3980581,19.6073386 33.1177402,19.6151832 C32.8482379,19.6227408 32.5793531,19.6448865 32.3122875,19.6815213" id="Shape" fill="#FFBE00"></path>
                <path d="M25.898405,23.8559055 C25.8587519,23.8559055 25.8228163,23.8657334 25.7918374,23.8718758 L25.7137704,23.8841606 L25.6654432,23.89276 L25.648095,23.89276 C25.648095,23.89276 25.5241792,24.0991451 25.3568929,24.4443487 C25.143101,24.8928583 24.972978,25.3605741 24.848838,25.8411335 C24.6854122,26.452799 24.6267691,27.0873318 24.6753559,27.7182551 C24.7329126,28.4328268 24.9795367,29.1197134 25.3903501,29.7096256 C25.8906089,30.3658181 26.5049431,30.9282664 27.2044776,31.3705342 C27.9166519,31.8353504 28.6664258,32.2409068 29.4461147,32.5830466 C30.1796963,32.9122799 30.8575158,33.1641189 31.3519399,33.3385634 C31.846364,33.513008 32.1549144,33.6088296 32.1536752,33.6247999 C32.1524361,33.6407702 32.2081982,33.3139938 32.2590037,32.8041735 C32.3253828,32.1346679 32.3564041,31.4621793 32.3519405,30.7894618 C32.3488955,29.9400984 32.2659254,29.092869 32.1041089,28.2587875 C31.9538056,27.4190232 31.6474966,26.6142349 31.2007626,25.8853589 C30.8585708,25.3507738 30.3989655,24.8997474 29.856276,24.5659685 C29.3775434,24.2772899 28.8536422,24.0697009 28.3060892,23.9517272 C27.836743,23.8499307 27.3577856,23.7980411 26.8773399,23.7969383 C26.5488093,23.7941027 26.2204745,23.8138055 25.8946875,23.8559055" id="Path" fill="#FFBE00"></path>
            </g>
        </g>
    </g>
</svg>